#Comment line ignore any data following # character 
#Hierarchical Translation and Rotation (.htr) file 
[Header]	
#Header keywords are followed by a single value 
FileType HTR		#Single word string
DataType HTRS		#Translation followed by rotation and scale data
FileVersion 1		#integer
NumSegments 84		#integer
NumFrames 2		#integer
DataFrameRate 30		#integer, data frame rate in this file
EulerRotationOrder ZYX
CalibrationUnits mm
RotationUnits Degrees
GlobalAxisofGravity Y
BoneLengthAxis Y
ScaleFactor 1.00
[SegmentNames&Hierarchy]
#CHILD	PARENT
MASTER GLOBAL
root MASTER
chest root
L_mid_tent01 root
R_mid_tent01 root
spine01 root
Bip01_Neck chest
L_humerus chest
R_humerus chest
weapon_bone chest
Bip01_Head Bip01_Neck
eye_left_bone Bip01_Head
eye_right_bone Bip01_Head
L_forearm L_humerus
L_front_hand L_forearm
L_weapon_bone L_forearm
L_front_hand01_01 L_front_hand
L_front_hand02_01 L_front_hand
L_front_hand03_01 L_front_hand
L_front_hand01_02 L_front_hand01_01
L_front_hand02_02 L_front_hand02_01
L_front_hand03_02 L_front_hand03_01
R_forearm R_humerus
R_front_hand R_forearm
R_weapon_bone R_forearm
R_front_hand01_01 R_front_hand
R_front_hand02_01 R_front_hand
R_front_hand03_01 R_front_hand
R_front_hand01_02 R_front_hand01_01
R_front_hand02_02 R_front_hand02_01
R_front_hand03_02 R_front_hand03_01
null_rope01_connect L_mid_tent01
Rope1_Seg01 null_rope01_connect
Rope1_Seg02 Rope1_Seg01
Rope1_Seg03 Rope1_Seg02
Rope1_Seg04 Rope1_Seg03
Rope1_Seg05 Rope1_Seg04
Rope1_Seg06 Rope1_Seg05
Rope1_Seg07 Rope1_Seg06
Rope1_Seg09 Rope1_Seg07
L_mid_hand01 Rope1_Seg09
L_mid_hand02 Rope1_Seg09
L_mid_hand03 Rope1_Seg09
null_rope02_connect R_mid_tent01
Rope2_Seg01 null_rope02_connect
Rope2_Seg02 Rope2_Seg01
Rope2_Seg03 Rope2_Seg02
Rope2_Seg04 Rope2_Seg03
Rope2_Seg05 Rope2_Seg04
Rope2_Seg06 Rope2_Seg05
Rope2_Seg07 Rope2_Seg06
Rope2_Seg09 Rope2_Seg07
R_mid_hand01 Rope2_Seg09
R_mid_hand02 Rope2_Seg09
R_mid_hand03 Rope2_Seg09
spine02 spine01
spine03 spine02
pelvis spine03
null_rope03_connect pelvis
null_rope04_connect pelvis
Rope3_Seg01 null_rope03_connect
Rope3_Seg02 Rope3_Seg01
Rope3_Seg03 Rope3_Seg02
Rope3_Seg04 Rope3_Seg03
Rope3_Seg05 Rope3_Seg04
Rope3_Seg06 Rope3_Seg05
Rope3_Seg07 Rope3_Seg06
Rope3_Seg08 Rope3_Seg07
Rope3_Seg09 Rope3_Seg08
R_rear_hand01 Rope3_Seg09
R_rear_hand02 Rope3_Seg09
R_rear_hand03 Rope3_Seg09
Rope4_Seg01 null_rope04_connect
Rope4_Seg02 Rope4_Seg01
Rope4_Seg03 Rope4_Seg02
Rope4_Seg04 Rope4_Seg03
Rope4_Seg05 Rope4_Seg04
Rope4_Seg06 Rope4_Seg05
Rope4_Seg07 Rope4_Seg06
Rope4_Seg08 Rope4_Seg07
Rope4_Seg09 Rope4_Seg08
L_rear_hand01 Rope4_Seg09
L_rear_hand02 Rope4_Seg09
L_rear_hand03 Rope4_Seg09
[BasePosition]
#SegmentName Tx, Ty, Tz, Rx, Ry, Rz, BoneLength
MASTER 0.000000 0.000000 0.000000 -90.000000 0.000000 0.000000 10.000000 
root 0.000000 0.000000 0.000000 0.000000 0.000000 0.000000 10.000000 
chest 0.000000 0.000000 0.000000 0.000000 0.000000 0.000000 10.000000 
L_mid_tent01 0.000000 0.000000 0.000000 0.000000 0.000000 0.000000 10.000000 
R_mid_tent01 0.000000 0.000000 0.000000 0.000000 0.000000 0.000000 10.000000 
spine01 0.000000 0.000000 0.000000 0.000000 0.000000 0.000000 10.000000 
Bip01_Neck 0.000000 0.000000 0.000000 0.000000 0.000000 0.000000 10.000000 
L_humerus 0.000000 0.000000 0.000000 0.000000 0.000000 0.000000 10.000000 
R_humerus 0.000000 0.000000 0.000000 0.000000 0.000000 0.000000 10.000000 
weapon_bone 0.000000 0.000000 0.000000 0.000000 0.000000 0.000000 10.000000 
Bip01_Head 0.000000 0.000000 0.000000 0.000000 0.000000 0.000000 10.000000 
eye_left_bone 0.000000 0.000000 0.000000 0.000000 0.000000 0.000000 10.000000 
eye_right_bone 0.000000 0.000000 0.000000 0.000000 0.000000 0.000000 10.000000 
L_forearm 0.000000 0.000000 0.000000 0.000000 0.000000 0.000000 10.000000 
L_front_hand 0.000000 0.000000 0.000000 0.000000 0.000000 0.000000 10.000000 
L_weapon_bone 0.000000 0.000000 0.000000 0.000000 0.000000 0.000000 10.000000 
L_front_hand01_01 0.000000 0.000000 0.000000 0.000000 0.000000 0.000000 10.000000 
L_front_hand02_01 0.000000 0.000000 0.000000 0.000000 0.000000 0.000000 10.000000 
L_front_hand03_01 0.000000 0.000000 0.000000 0.000000 0.000000 0.000000 10.000000 
L_front_hand01_02 0.000000 0.000000 0.000000 0.000000 0.000000 0.000000 10.000000 
L_front_hand02_02 0.000000 0.000000 0.000000 0.000000 0.000000 0.000000 10.000000 
L_front_hand03_02 0.000000 0.000000 0.000000 0.000000 0.000000 0.000000 10.000000 
R_forearm 0.000000 0.000000 0.000000 0.000000 0.000000 0.000000 10.000000 
R_front_hand 0.000000 0.000000 0.000000 0.000000 0.000000 0.000000 10.000000 
R_weapon_bone 0.000000 0.000000 0.000000 0.000000 0.000000 0.000000 10.000000 
R_front_hand01_01 0.000000 0.000000 0.000000 0.000000 0.000000 0.000000 10.000000 
R_front_hand02_01 0.000000 0.000000 0.000000 0.000000 0.000000 0.000000 10.000000 
R_front_hand03_01 0.000000 0.000000 0.000000 0.000000 0.000000 0.000000 10.000000 
R_front_hand01_02 0.000000 0.000000 0.000000 0.000000 0.000000 0.000000 10.000000 
R_front_hand02_02 0.000000 0.000000 0.000000 0.000000 0.000000 0.000000 10.000000 
R_front_hand03_02 0.000000 0.000000 0.000000 0.000000 0.000000 0.000000 10.000000 
null_rope01_connect 0.000000 0.000000 0.000000 0.000000 0.000000 0.000000 10.000000 
Rope1_Seg01 0.000000 0.000000 0.000000 0.000000 0.000000 0.000000 10.000000 
Rope1_Seg02 0.000000 0.000000 0.000000 0.000000 0.000000 0.000000 10.000000 
Rope1_Seg03 0.000000 0.000000 0.000000 0.000000 0.000000 0.000000 10.000000 
Rope1_Seg04 0.000000 0.000000 0.000000 0.000000 0.000000 0.000000 10.000000 
Rope1_Seg05 0.000000 0.000000 0.000000 0.000000 0.000000 0.000000 10.000000 
Rope1_Seg06 0.000000 0.000000 0.000000 0.000000 0.000000 0.000000 10.000000 
Rope1_Seg07 0.000000 0.000000 0.000000 0.000000 0.000000 0.000000 10.000000 
Rope1_Seg09 0.000000 0.000000 0.000000 0.000000 0.000000 0.000000 10.000000 
L_mid_hand01 0.000000 0.000000 0.000000 0.000000 0.000000 0.000000 10.000000 
L_mid_hand02 0.000000 0.000000 0.000000 0.000000 0.000000 0.000000 10.000000 
L_mid_hand03 0.000000 0.000000 0.000000 0.000000 0.000000 0.000000 10.000000 
null_rope02_connect 0.000000 0.000000 0.000000 0.000000 0.000000 0.000000 10.000000 
Rope2_Seg01 0.000000 0.000000 0.000000 0.000000 0.000000 0.000000 10.000000 
Rope2_Seg02 0.000000 0.000000 0.000000 0.000000 0.000000 0.000000 10.000000 
Rope2_Seg03 0.000000 0.000000 0.000000 0.000000 0.000000 0.000000 10.000000 
Rope2_Seg04 0.000000 0.000000 0.000000 0.000000 0.000000 0.000000 10.000000 
Rope2_Seg05 0.000000 0.000000 0.000000 0.000000 0.000000 0.000000 10.000000 
Rope2_Seg06 0.000000 0.000000 0.000000 0.000000 0.000000 0.000000 10.000000 
Rope2_Seg07 0.000000 0.000000 0.000000 0.000000 0.000000 0.000000 10.000000 
Rope2_Seg09 0.000000 0.000000 0.000000 0.000000 0.000000 0.000000 10.000000 
R_mid_hand01 0.000000 0.000000 0.000000 0.000000 0.000000 0.000000 10.000000 
R_mid_hand02 0.000000 0.000000 0.000000 0.000000 0.000000 0.000000 10.000000 
R_mid_hand03 0.000000 0.000000 0.000000 0.000000 0.000000 0.000000 10.000000 
spine02 0.000000 0.000000 0.000000 0.000000 0.000000 0.000000 10.000000 
spine03 0.000000 0.000000 0.000000 0.000000 0.000000 0.000000 10.000000 
pelvis 0.000000 0.000000 0.000000 0.000000 0.000000 0.000000 10.000000 
null_rope03_connect 0.000000 0.000000 0.000000 0.000000 0.000000 0.000000 10.000000 
null_rope04_connect 0.000000 0.000000 0.000000 0.000000 0.000000 0.000000 10.000000 
Rope3_Seg01 0.000000 0.000000 0.000000 0.000000 0.000000 0.000000 10.000000 
Rope3_Seg02 0.000000 0.000000 0.000000 0.000000 0.000000 0.000000 10.000000 
Rope3_Seg03 0.000000 0.000000 0.000000 0.000000 0.000000 0.000000 10.000000 
Rope3_Seg04 0.000000 0.000000 0.000000 0.000000 0.000000 0.000000 10.000000 
Rope3_Seg05 0.000000 0.000000 0.000000 0.000000 0.000000 0.000000 10.000000 
Rope3_Seg06 0.000000 0.000000 0.000000 0.000000 0.000000 0.000000 10.000000 
Rope3_Seg07 0.000000 0.000000 0.000000 0.000000 0.000000 0.000000 10.000000 
Rope3_Seg08 0.000000 0.000000 0.000000 0.000000 0.000000 0.000000 10.000000 
Rope3_Seg09 0.000000 0.000000 0.000000 0.000000 0.000000 0.000000 10.000000 
R_rear_hand01 0.000000 0.000000 0.000000 0.000000 0.000000 0.000000 10.000000 
R_rear_hand02 0.000000 0.000000 0.000000 0.000000 0.000000 0.000000 10.000000 
R_rear_hand03 0.000000 0.000000 0.000000 0.000000 0.000000 0.000000 10.000000 
Rope4_Seg01 0.000000 0.000000 0.000000 0.000000 0.000000 0.000000 10.000000 
Rope4_Seg02 0.000000 0.000000 0.000000 0.000000 0.000000 0.000000 10.000000 
Rope4_Seg03 0.000000 0.000000 0.000000 0.000000 0.000000 0.000000 10.000000 
Rope4_Seg04 0.000000 0.000000 0.000000 0.000000 0.000000 0.000000 10.000000 
Rope4_Seg05 0.000000 0.000000 0.000000 0.000000 0.000000 0.000000 10.000000 
Rope4_Seg06 0.000000 0.000000 0.000000 0.000000 0.000000 0.000000 10.000000 
Rope4_Seg07 0.000000 0.000000 0.000000 0.000000 0.000000 0.000000 10.000000 
Rope4_Seg08 0.000000 0.000000 0.000000 0.000000 0.000000 0.000000 10.000000 
Rope4_Seg09 0.000000 0.000000 0.000000 0.000000 0.000000 0.000000 10.000000 
L_rear_hand01 0.000000 0.000000 0.000000 0.000000 0.000000 0.000000 10.000000 
L_rear_hand02 0.000000 0.000000 0.000000 0.000000 0.000000 0.000000 10.000000 
L_rear_hand03 0.000000 0.000000 0.000000 0.000000 0.000000 0.000000 10.000000 
#Beginning of Data. Separated by tabs
#Fr	Tx	Ty	Tz	Rx	Ry	Rz	SF
[MASTER]
24 0.000000 0.000000 0.000000 0.001660 0.001660 0.001660 0.000000
25 0.000000 0.000000 0.000000 0.001660 0.001660 0.001660 0.000000
[root]
24 -33.384087 5.947201 1446.199951 -91.706375 7.188744 -90.037125 1446.597412
25 -35.200977 8.086502 1450.533936 -91.706375 7.188744 -90.037125 1450.983521
[chest]
24 -84.512650 -34.090519 0.000000 -2.117274 0.462005 -179.268204 91.129311
25 -84.512650 -34.090519 0.000000 -2.117274 0.462005 -179.268204 91.129311
[L_mid_tent01]
24 27.299511 22.177458 -249.918259 -11.212391 7.173965 46.128521 252.381134
25 27.299511 22.177458 -249.918259 -11.212391 7.173965 46.128521 252.381134
[R_mid_tent01]
24 23.228794 24.509907 226.238495 -173.453110 -7.865565 48.320805 228.744751
25 23.228794 24.509907 226.238495 -173.453110 -7.865565 48.320805 228.744751
[spine01]
24 -0.361383 -0.195265 0.000000 -0.000001 -0.000007 22.052340 0.410763
25 -0.361383 -0.195265 0.000000 -0.000001 -0.000007 22.052340 0.410763
[Bip01_Neck]
24 165.484543 71.581718 0.000119 175.896118 1.177290 24.871183 180.302734
25 165.484543 71.581718 0.000119 175.896118 1.177290 24.871183 180.302734
[L_humerus]
24 -13.983130 -135.272980 -120.471481 177.317520 0.814944 177.327347 181.680161
25 -13.983130 -135.272980 -120.471481 177.317520 0.814944 177.327347 181.680161
[R_humerus]
24 -13.983309 -135.273102 125.287651 -179.087967 -0.295690 175.068390 184.909012
25 -13.983309 -135.273102 125.287651 -179.087967 -0.295690 175.068390 184.909012
[weapon_bone]
24 235.964890 -300.705902 0.000000 0.000000 -89.951546 -128.212341 382.234833
25 235.964890 -300.705902 0.000000 0.000000 -89.951546 -128.212341 382.234833
[Bip01_Head]
24 97.775497 22.186661 5.309563 3.366012 3.339071 -18.399078 100.401627
25 97.775497 22.186661 5.309563 3.366012 3.339071 -18.399078 100.401627
[eye_left_bone]
24 -24.626970 125.451866 -64.772606 0.000000 -90.000000 -99.840431 143.318359
25 -24.626970 125.451866 -64.772606 0.000000 -90.000000 -99.840431 143.318359
[eye_right_bone]
24 -24.626970 125.451866 64.327362 0.000000 -89.965736 80.156380 143.117676
25 -24.626970 125.451866 64.327362 0.000000 -89.965736 80.156380 143.117676
[L_forearm]
24 322.776093 0.000000 -0.000119 0.001372 -0.001904 -161.553818 322.776093
25 322.776093 0.000000 -0.000119 0.001372 -0.001904 -161.553818 322.776093
[L_front_hand]
24 241.149185 -0.042021 -3.300071 -179.659958 -2.242151 -0.019832 241.171753
25 241.149185 -0.042021 -3.300071 -179.659958 -2.242151 -0.019832 241.171753
[L_weapon_bone]
24 156.183838 0.000000 0.000000 0.000014 0.000007 0.000001 156.183838
25 156.183838 0.000000 0.000000 0.000014 0.000007 0.000001 156.183838
[L_front_hand01_01]
24 86.095154 20.947098 -0.655860 0.405585 -0.442306 -4.620490 88.609184
25 86.095154 20.947098 -0.655860 0.405585 -0.442306 -4.620490 88.609184
[L_front_hand02_01]
24 86.935165 -11.437475 24.513514 116.959450 3.630817 1.495453 91.046425
25 86.935165 -11.437475 24.513514 116.959450 3.630817 1.495453 91.046425
[L_front_hand03_01]
24 86.637497 -14.123976 -20.424902 -118.419884 -4.660555 -0.155069 90.126129
25 86.637497 -14.123976 -20.424902 -118.419884 -4.660555 -0.155069 90.126129
[L_front_hand01_02]
24 71.020905 -0.000179 0.000030 0.000004 -0.000005 -8.379269 71.020905
25 71.020905 -0.000179 0.000030 0.000004 -0.000005 -8.379269 71.020905
[L_front_hand02_02]
24 71.020927 -0.000119 0.000060 -0.000005 -0.000004 -8.379259 71.020927
25 71.020927 -0.000119 0.000060 -0.000005 -0.000004 -8.379259 71.020927
[L_front_hand03_02]
24 71.020905 -0.000060 0.000060 0.000015 -0.000040 -8.379267 71.020905
25 71.020905 -0.000060 0.000060 0.000015 -0.000040 -8.379267 71.020905
[R_forearm]
24 322.776428 -0.000060 0.000030 0.066610 0.203476 -163.260239 322.776428
25 322.776428 -0.000060 0.000030 0.066610 0.203476 -163.260239 322.776428
[R_front_hand]
24 238.847015 -0.006795 2.210259 -0.270529 1.703932 2.322530 238.857239
25 238.847015 -0.006795 2.210259 -0.270529 1.703932 2.322530 238.857239
[R_weapon_bone]
24 155.664093 0.002503 -0.000030 0.003487 0.001180 -90.988930 155.664078
25 155.664093 0.002503 -0.000030 0.003487 0.001180 -90.988930 155.664078
[R_front_hand01_01]
24 87.624611 14.231146 22.918642 -116.960213 3.496675 -1.324139 91.683487
25 87.624611 14.231146 22.918642 -116.960213 3.496675 -1.324139 91.683487
[R_front_hand02_01]
24 89.356956 14.367283 -19.491137 118.419647 -4.257089 0.609827 92.579636
25 89.356956 14.367283 -19.491137 118.419647 -4.257089 0.609827 92.579636
[R_front_hand03_01]
24 87.286232 -22.307278 -0.143439 -0.387970 -0.231462 4.232001 90.091743
25 87.286232 -22.307278 -0.143439 -0.387970 -0.231462 4.232001 90.091743
[R_front_hand01_02]
24 71.020905 0.000060 0.000119 -0.000005 -0.000020 8.379271 71.020905
25 71.020905 0.000060 0.000119 -0.000005 -0.000020 8.379271 71.020905
[R_front_hand02_02]
24 71.020844 -0.000030 -0.000119 0.000000 -0.000021 8.379271 71.020836
25 71.020844 -0.000030 -0.000119 0.000000 -0.000021 8.379271 71.020836
[R_front_hand03_02]
24 71.020905 0.000000 0.000030 -0.000001 -0.000020 8.379275 71.020905
25 71.020905 0.000000 0.000030 -0.000001 -0.000020 8.379275 71.020905
[null_rope01_connect]
24 328.732483 0.000000 -0.000238 160.552872 -75.066147 -124.625038 328.732483
25 328.732483 0.000000 -0.000238 160.552872 -75.066147 -124.625038 328.732483
[Rope1_Seg01]
24 0.000000 0.000000 0.000000 -140.198563 53.330647 -124.573593 0.000000
25 0.000000 0.000000 0.000000 -138.251526 53.858017 -123.589188 0.000000
[Rope1_Seg02]
24 139.999863 -0.000179 0.000000 31.836269 -1.273682 -16.367678 139.999863
25 139.999863 -0.000179 0.000000 29.072346 -0.852965 -15.660654 139.999863
[Rope1_Seg03]
24 139.999924 0.000060 -0.000060 30.758532 -5.549340 -9.836214 139.999924
25 139.999924 0.000060 -0.000060 28.796402 -4.450916 -9.569792 139.999924
[Rope1_Seg04]
24 139.999924 -0.000060 -0.000119 20.087879 -5.437398 -5.272208 139.999924
25 139.999924 -0.000060 -0.000119 19.938154 -4.230315 -5.502076 139.999924
[Rope1_Seg05]
24 139.999832 0.000119 -0.000060 3.678212 -4.590680 2.409732 139.999832
25 139.999832 0.000119 -0.000060 5.589595 -5.054363 1.891093 139.999832
[Rope1_Seg06]
24 139.999954 0.000119 -0.000060 -3.768626 -4.476282 8.560330 139.999954
25 139.999954 0.000119 -0.000060 -1.760657 -6.211725 8.302338 139.999954
[Rope1_Seg07]
24 139.999985 0.000060 0.000000 -2.971629 -5.591792 9.966249 139.999985
25 139.999985 0.000060 0.000000 -1.703135 -7.274115 9.815886 139.999985
[Rope1_Seg09]
24 121.602913 0.000119 -0.000089 -89.793175 -1.359789 0.847147 121.602913
25 121.602913 0.000119 -0.000089 -89.793175 -1.359789 0.847147 121.602913
[L_mid_hand01]
24 103.859421 1.038730 8.195221 106.855484 -31.239275 -9.461397 104.187431
25 103.859421 1.038730 8.195221 106.855484 -31.239275 -9.461397 104.187431
[L_mid_hand02]
24 105.572853 -4.139662 -10.864139 -142.331345 25.752670 -28.774628 106.211075
25 105.572853 -4.139662 -10.864139 -142.331345 25.752670 -28.774628 106.211075
[L_mid_hand03]
24 104.641464 17.579376 -3.913581 -16.122810 9.734291 34.223598 106.179977
25 104.641464 17.579376 -3.913581 -16.122810 9.734291 34.223598 106.179977
[null_rope02_connect]
24 328.732849 0.000179 -0.000119 174.610336 81.478409 -39.424759 328.732849
25 328.732849 0.000179 -0.000119 174.610336 81.478409 -39.424759 328.732849
[Rope2_Seg01]
24 0.000076 0.000111 0.000153 157.324905 54.671757 -74.521309 0.000204
25 0.000076 0.000111 0.000153 154.152542 55.293552 -77.537323 0.000204
[Rope2_Seg02]
24 139.999741 -0.000060 -0.000119 -8.734633 12.129267 1.326535 139.999756
25 139.999741 -0.000060 -0.000119 -7.410913 12.951200 -0.052579 139.999756
[Rope2_Seg03]
24 140.000107 0.000030 0.000000 -3.195220 16.972509 -7.212208 140.000107
25 140.000107 0.000030 0.000000 2.722180 17.240051 -9.284046 140.000107
[Rope2_Seg04]
24 139.999802 0.000000 -0.000060 -40.400707 3.576507 16.438881 139.999802
25 139.999802 0.000000 -0.000060 -46.498516 6.659886 13.580590 139.999802
[Rope2_Seg05]
24 139.999985 -0.000060 0.000119 -6.582239 -24.759357 15.791773 139.999985
25 139.999985 -0.000060 0.000119 -9.362023 -25.116180 18.191614 139.999985
[Rope2_Seg06]
24 139.999893 -0.000030 -0.000119 -1.039651 -7.069879 4.492086 139.999893
25 139.999893 -0.000030 -0.000119 -1.283793 -7.800064 5.023402 139.999893
[Rope2_Seg07]
24 139.999893 0.000060 -0.000060 -0.432053 -3.581521 2.316209 139.999893
25 139.999893 0.000060 -0.000060 -0.512591 -3.811776 2.512941 139.999893
[Rope2_Seg09]
24 121.338966 0.000089 -0.000060 33.793236 -1.359788 -0.847141 121.338966
25 121.338966 0.000089 -0.000060 33.793236 -1.359788 -0.847141 121.338966
[R_mid_hand01]
24 104.680779 11.144459 -10.335981 -41.523792 25.424656 28.595957 105.778534
25 104.680779 11.144459 -10.335981 -41.523792 25.424656 28.595957 105.778534
[R_mid_hand02]
24 104.070427 2.443552 8.231699 72.847389 -32.746803 10.013901 104.424065
25 104.070427 2.443552 8.231699 72.847389 -32.746803 10.013901 104.424065
[R_mid_hand03]
24 106.028137 -11.221827 -5.996406 -167.901306 10.259192 -37.009720 106.788818
25 106.028137 -11.221827 -5.996406 -167.901306 10.259192 -37.009720 106.788818
[spine02]
24 129.756927 0.001550 0.000119 0.360061 -4.044797 -12.915058 129.756927
25 129.756927 0.001550 0.000119 0.360061 -4.044797 -12.915058 129.756927
[spine03]
24 78.613846 0.087372 -4.898873 1.896495 3.831288 16.473045 78.766380
25 78.613846 0.087372 -4.898873 1.896495 3.831288 16.473045 78.766380
[pelvis]
24 169.435242 0.051022 0.000000 -0.060465 -0.180225 14.087930 169.435257
25 169.435242 0.051022 0.000000 -0.060465 -0.180225 14.087930 169.435257
[null_rope03_connect]
24 -1.257226 -2.466202 137.391083 -168.629776 -89.386429 -148.244614 137.418976
25 -1.257226 -2.466202 137.391083 -168.629776 -89.386429 -148.244614 137.418976
[null_rope04_connect]
24 -1.259640 -2.480268 -137.844437 -168.629776 -89.386429 -148.244614 137.872513
25 -1.259640 -2.480268 -137.844437 -168.629776 -89.386429 -148.244614 137.872513
[Rope3_Seg01]
24 0.000000 0.000000 0.000000 -140.360458 19.662798 -109.490280 0.000000
25 0.000000 0.000000 0.000000 -139.350677 17.982533 -110.139267 0.000000
[Rope3_Seg02]
24 139.999924 -0.000119 0.000060 -0.553336 -6.474376 -6.673153 139.999924
25 139.999924 -0.000119 0.000060 -1.106757 -7.238628 -6.086393 139.999924
[Rope3_Seg03]
24 139.999924 -0.000119 0.000119 0.006133 -8.939549 -9.459830 139.999924
25 139.999924 -0.000119 0.000119 -0.427292 -9.798244 -8.626928 139.999924
[Rope3_Seg04]
24 139.999924 0.000119 0.000000 2.297406 -16.222727 -16.907505 139.999924
25 139.999924 0.000119 0.000000 1.874676 -16.851707 -14.775579 139.999924
[Rope3_Seg05]
24 139.999924 -0.000238 0.000060 -0.130723 0.613127 -1.631193 139.999924
25 139.999924 -0.000238 0.000060 -0.028526 -0.221509 -2.298186 139.999924
[Rope3_Seg06]
24 139.999893 -0.000119 -0.000060 1.330557 13.550983 10.273957 139.999893
25 139.999893 -0.000119 -0.000060 0.793367 12.205478 7.208878 139.999893
[Rope3_Seg07]
24 139.999771 0.000060 -0.000119 1.142607 6.106981 3.921705 139.999771
25 139.999771 0.000060 -0.000119 0.894429 5.233354 2.414242 139.999771
[Rope3_Seg08]
24 139.999985 -0.000060 0.000000 1.076916 3.893243 2.364339 139.999985
25 139.999985 -0.000060 0.000000 0.894869 3.354351 1.438068 139.999985
[Rope3_Seg09]
24 90.185997 -0.000179 -0.000060 89.793228 -1.359877 -0.847183 90.185997
25 90.185997 -0.000179 -0.000060 89.793228 -1.359877 -0.847183 90.185997
[R_rear_hand01]
24 103.366196 -6.073594 -10.757982 -161.551193 16.666374 -30.088671 104.101845
25 103.366196 -6.073594 -10.757982 -161.551193 16.666374 -30.088671 104.101845
[R_rear_hand02]
24 100.509819 12.039542 -7.992327 -34.280552 19.289745 28.875523 101.543350
25 100.509819 12.039542 -7.992327 -34.280552 19.289745 28.875523 101.543350
[R_rear_hand03]
24 101.539970 5.215704 5.435467 83.366440 -30.933914 7.284830 101.819031
25 101.539970 5.215704 5.435467 83.366440 -30.933914 7.284830 101.819031
[Rope4_Seg01]
24 0.000010 0.000038 -0.000114 41.001797 18.147415 -121.455055 0.000121
25 0.000010 0.000038 -0.000114 40.413776 19.038883 -122.467422 0.000121
[Rope4_Seg02]
24 139.999985 0.000060 0.000119 0.918527 9.016433 7.456493 139.999985
25 139.999985 0.000060 0.000119 0.964761 8.272528 7.534717 139.999985
[Rope4_Seg03]
24 139.999924 0.000000 -0.000238 0.930058 13.780585 11.456272 139.999924
25 139.999924 0.000000 -0.000238 0.892159 12.864408 11.718942 139.999924
[Rope4_Seg04]
24 139.999985 0.000000 0.000119 -0.748018 23.617086 21.421385 139.999985
25 139.999985 0.000000 0.000119 -1.141322 22.866495 22.598537 139.999985
[Rope4_Seg05]
24 139.999802 -0.000060 -0.000119 -0.665596 2.526624 2.049978 139.999802
25 139.999802 -0.000060 -0.000119 -1.527202 3.348120 3.411408 139.999802
[Rope4_Seg06]
24 139.999924 0.000000 0.000060 6.805361 -12.408719 -13.999786 139.999924
25 139.999924 0.000000 0.000060 6.777720 -10.435501 -13.139812 139.999924
[Rope4_Seg07]
24 139.999802 0.000000 0.000000 1.589653 -5.773425 -5.434045 139.999802
25 139.999802 0.000000 0.000000 1.564981 -4.529181 -4.704613 139.999802
[Rope4_Seg08]
24 139.999924 0.000000 0.000119 -0.905188 -3.142977 -2.843469 139.999924
25 139.999924 0.000000 0.000119 -0.875967 -2.461046 -2.448254 139.999924
[Rope4_Seg09]
24 90.185791 0.000060 0.000060 -135.617828 2.228885 0.850567 90.185791
25 90.185791 0.000060 0.000060 -135.617828 2.228885 0.850567 90.185791
[L_rear_hand01]
24 101.696655 -8.392275 -7.654577 -34.454281 -18.946800 151.655121 102.329041
25 101.696655 -8.392275 -7.654577 -34.454281 -18.946800 151.655121 102.329041
[L_rear_hand02]
24 102.726799 -1.568258 5.773216 83.407906 30.330435 172.796509 102.900848
25 102.726799 -1.568258 5.773216 83.407906 30.330435 172.796509 102.900848
[L_rear_hand03]
24 104.552910 9.721220 -10.420293 -161.379868 -16.473232 -150.512238 105.519653
25 104.552910 9.721220 -10.420293 -161.379868 -16.473232 -150.512238 105.519653
